# xmcd
#
# Track frame offsets:
#	187
#	19280
#	32910
#	51962
#	62935
#	79305
#	92545
#	104067
#	120755
#	136710
#
# Disc length: 2031 seconds
#
# Revision: 3
# Processed by: cddbd v1.5.2PL0 Copyright (c) Steve Scherf et al.
# Submitted via: audiograbber 1.83.01
#
DISCID=8207ed0a
DTITLE=Various Artist - JV0061
DYEAR=1900
DGENRE=
TTITLE0=Alabama - Once Upon A Lifetime
TTITLE1=Carpenter, Mary Chapin - Passionate Kisses
TTITLE2=Tucker, Tanya - Two Sparrows In A Hurricane
TTITLE3=Jackson, Alan - She's Got The Rhythm (And I Got The Blues)
TTITLE4=Anderson, John - Seminole Wind
TTITLE5=Brooks and Dunn - Hard Workin' Man
TTITLE6=Raye, Collin - I Want You Bad (And That Ain't Good)
TTITLE7=Black, Clint - When My Ship Comes In
TTITLE8=Strait, George - I Cross My Heart
TTITLE9=Tillis, Pam - Let That Pony Run
EXTD=
EXTT0=
EXTT1=
EXTT2=
EXTT3=
EXTT4=
EXTT5=
EXTT6=
EXTT7=
EXTT8=
EXTT9=
PLAYORDER=
